<?xml version="1.0" encoding="UTF-8"?>
<svg width="44px" height="34px" viewBox="0 0 44 34" version="1.1" xmlns="http://www.w3.org/2000/svg" xmlns:xlink="http://www.w3.org/1999/xlink">
    <!-- Generator: Sketch 50.2 (55047) - http://www.bohemiancoding.com/sketch -->
    <title>amazonwebservices.6b6bb8b</title>
    <desc>Created with Sketch.</desc>
    <defs></defs>
    <g id="Page-1" stroke="none" stroke-width="1" fill="none" fill-rule="evenodd">
        <g id="Desktop-HD" transform="translate(-347.000000, -1921.000000)" fill="#F7A80D" fill-rule="nonzero">
            <g id="seccion-exp" transform="translate(0.000000, 1248.000000)">
                <g id="amazon" transform="translate(340.000000, 644.000000)">
                    <g id="amazonwebservices.6b6bb8b" transform="translate(7.000000, 29.000000)">
                        <path d="M12.5717776,21.675217 L8.62394231,23.3750434 L12.2805382,24.9422445 L16.5196129,23.3750434 L12.5717776,21.675217 Z M6.63686521,23.8 L6.5045781,31.4499132 L12.2805382,34 L12.2805382,26.0577555 L6.63686521,23.8 Z M18.50669,23.8 L13.2868899,25.7925049 L13.2868899,33.2830593 L18.50669,31.1579291 L18.50669,23.8 Z M24.7328418,0 L20.7586876,1.69982641 L24.4416024,3.26737466 L28.6806771,1.69982641 L24.7328418,0 Z M19.2218023,2.25775554 L19.2218023,9.90766874 L24.1500167,11.3422445 L24.308969,4.38253855 L19.2218023,2.25775554 Z M30.2438814,2.68271214 L25.5805875,4.6748698 L25.5805875,12.1921577 L30.2438814,10.0670275 L30.2438814,2.68271214 Z M6.0671995,10.766956 L2.11971051,12.4671296 L5.77596008,14.0343306 L10.0150348,12.4671296 L6.0671995,10.766956 Z M0.132287112,12.8920862 L0,20.5419994 L5.77596008,23.0920862 L5.77596008,15.1498417 L0.132287112,12.8920862 Z M12.0017656,12.8920862 L6.78265808,14.8842438 L6.78265808,22.3744511 L12.0017656,20.2496681 L12.0017656,12.8920862 Z M18.78477,10.4836516 L14.8369347,12.1838252 L18.4931842,13.7510262 L22.732259,12.1838252 L18.78477,10.4836516 Z M12.8502039,12.6087818 L12.7175705,20.2590422 L18.4935305,22.809129 L18.4935305,14.8665373 L12.8502039,12.6087818 Z M24.7196824,12.6087818 L19.5002285,14.6009394 L19.5002285,22.0918411 L24.7196824,19.9667109 L24.7196824,12.6087818 Z M37.1546709,0 L33.2071819,1.69982641 L36.8637778,3.26737466 L41.1028525,1.69982641 L37.1546709,0 Z M31.2201048,2.1251302 L31.0878177,9.7750434 L36.8637778,12.324783 L36.8637778,4.38253855 L31.2201048,2.1251302 Z M43.0895833,2.1251302 L37.8704758,4.11728786 L37.8704758,11.6078423 L43.0895833,9.48305933 L43.0895833,2.1251302 Z" id="Shape"></path>
                    </g>
                </g>
            </g>
        </g>
    </g>
</svg>