<?xml version="1.0" encoding="UTF-8"?>
<svg width="42px" height="41px" viewBox="0 0 42 41" version="1.1" xmlns="http://www.w3.org/2000/svg" xmlns:xlink="http://www.w3.org/1999/xlink">
    <!-- Generator: Sketch 50.2 (55047) - http://www.bohemiancoding.com/sketch -->
    <title>bootstrap.fcdd1e3</title>
    <desc>Created with Sketch.</desc>
    <defs></defs>
    <g id="Page-1" stroke="none" stroke-width="1" fill="none" fill-rule="evenodd">
        <g id="Desktop-HD" transform="translate(-347.000000, -1803.000000)" fill="#5B4282" fill-rule="nonzero">
            <g id="seccion-exp" transform="translate(0.000000, 1248.000000)">
                <g id="bootstrap" transform="translate(340.000000, 534.000000)">
                    <g id="bootstrap.fcdd1e3" transform="translate(7.879167, 21.000000)">
                        <path d="M24.5529737,20.861784 C23.7858268,20.60988 22.6814508,20.664 21.2398457,20.664 L15.4481167,20.664 L15.4481167,28.208 L21.6418254,28.208 C22.6094691,28.208 23.2891863,28.10468 23.6806481,28.03252 C24.3705544,27.909192 24.9473937,27.670408 25.4108372,27.382424 C25.873952,27.095096 26.254896,26.659184 26.5539978,26.109456 C26.8524423,25.559728 27.0019932,24.91652 27.0019932,24.197216 C27.0019932,23.354912 26.7857196,22.708096 26.3528436,22.086208 C25.9202964,21.46432 25.3204493,21.113688 24.5529737,20.861784 Z M23.7578887,17.412536 C24.519448,17.186872 25.0936578,16.792616 25.4798607,16.2688 C25.8663923,15.744656 26.0593294,15.077832 26.0593294,14.286368 C26.0593294,13.53656 25.8788823,12.871376 25.5183166,12.300656 C25.157751,11.729936 24.6433616,11.509192 23.9738337,11.298288 C23.3043057,11.08804 22.1562148,11.152 20.5292323,11.152 L15.4481167,11.152 L15.4481167,17.712 L20.8999871,17.712 C22.2285252,17.712 23.1807208,17.58736 23.7578887,17.412536 Z M41.0854167,5.453 C41.0854167,2.441304 38.6390266,0 35.6210563,0 L5.46436042,0 C2.44639005,0 0,2.441304 0,5.453 L0,35.547 C0,38.558696 2.44639005,41 5.46436042,41 L35.6210563,41 C38.6390266,41 41.0854167,38.558696 41.0854167,35.547 L41.0854167,5.453 Z M29.4345786,27.14036 C28.9869119,28.049904 28.4330804,28.751168 27.7740704,29.24448 C27.1147316,29.737792 26.288093,30.15632 25.2944833,30.408224 C24.3012023,30.660456 23.0831018,30.832 21.6418254,30.832 L12.4899667,30.832 L12.4899667,8.2 L21.5024637,8.2 C23.2326527,8.2 24.6200251,8.399752 25.6652381,8.856656 C26.7107798,9.314216 27.5292013,10.003672 28.1218173,10.954216 C28.713776,11.90476 29.0099197,12.891712 29.0099197,13.929504 C29.0099197,14.895464 28.746973,15.801728 28.2220657,16.654528 C27.6968298,17.507984 26.9037169,18.19416 25.8433845,18.718304 C27.2126792,19.11912 28.2657806,19.802016 29.0020313,20.767648 C29.738282,21.733608 30.1064073,22.874064 30.1064073,24.189344 C30.1064073,25.2478 29.8825739,26.231144 29.4345786,27.14036 Z" id="Shape"></path>
                    </g>
                </g>
            </g>
        </g>
    </g>
</svg>