<?xml version="1.0" encoding="UTF-8"?>
<svg width="814px" height="432px" viewBox="0 0 814 432" version="1.1" xmlns="http://www.w3.org/2000/svg" xmlns:xlink="http://www.w3.org/1999/xlink">
    <!-- Generator: Sketch 50.2 (55047) - http://www.bohemiancoding.com/sketch -->
    <title>Group</title>
    <desc>Created with Sketch.</desc>
    <defs></defs>
    <g id="Page-1" stroke="none" stroke-width="1" fill="none" fill-rule="evenodd" opacity="0.651953125">
        <g id="Desktop-HD" transform="translate(-13.000000, -56.000000)">
            <g id="Group-3">
                <g transform="translate(14.000000, 57.000000)" id="Group">
                    <g>
                        <polygon id="Fill-14" fill="#3B3A39" points="123 222 221 222 221 170 123 170"></polygon>
                        <polygon id="Stroke-15" stroke="#3B3A39" stroke-width="2" stroke-linecap="round" stroke-linejoin="round" points="123 222 221 222 221 170 123 170"></polygon>
                        <polygon id="Stroke-17" stroke="#3B3A39" stroke-width="2" stroke-linecap="round" stroke-linejoin="round" points="210 395 649 395 649 231 210 231"></polygon>
                        <polyline id="Fill-18" fill="#FFFFFE" points="606 172.881955 599.482607 172 597 190.118045 603.515924 191 606 172.881955"></polyline>
                        <polygon id="Stroke-19" stroke="#3B3A39" stroke-width="2" fill="#AF7BDD" stroke-linecap="round" stroke-linejoin="round" points="606 172.881955 599.482607 172 597 190.118045 603.515924 191"></polygon>
                        <polyline id="Fill-20" fill="#FFFFFE" points="597 191 599.565982 198 604 191.909639 597 191"></polyline>
                        <polygon id="Stroke-21" stroke="#3B3A39" stroke-width="2" stroke-linecap="round" stroke-linejoin="round" points="597 191 599.565982 198 604 191.909639"></polygon>
                        <polyline id="Fill-22" fill="#FFFFFE" points="611 143.895124 604.140284 143 600 172.104876 606.862811 173 611 143.895124"></polyline>
                        <polygon id="Stroke-23" stroke="#3B3A39" stroke-width="2" fill="#AF7BDD" stroke-linecap="round" stroke-linejoin="round" points="611 143.895124 604.140284 143 600 172.104876 606.862811 173"></polygon>
                        <polyline id="Fill-24" fill="#FFFFFE" points="610.657658 147 604 145.945343 604.345345 143 611 144.056406 610.657658 147"></polyline>
                        <path d="M610.638873,145.872694 L603.615907,144.96298 L603.980201,142.422421 L611,143.333643 L610.638873,145.872694 Z M603.129653,142.31229 L600.717389,142 L597,168 L603.129653,142.31229 Z" id="Stroke-25" stroke="#3B3A39" stroke-width="2" stroke-linecap="round" stroke-linejoin="round"></path>
                        <polyline id="Fill-26" fill="#FFFFFE" points="610 136.488471 606.107737 136 605 143.510053 608.890665 144 610 136.488471"></polyline>
                        <polygon id="Stroke-27" stroke="#3B3A39" stroke-width="2" stroke-linecap="round" stroke-linejoin="round" points="610 136.488471 606.107737 136 605 143.510053 608.890665 144"></polygon>
                        <polyline id="Fill-28" fill="#FFFFFE" points="582.581652 153 576 153.942346 581.418348 192 588 191.056163 582.581652 153"></polyline>
                        <polygon id="Stroke-29" stroke="#3B3A39" stroke-width="2" fill="#AF7BDD" stroke-linecap="round" stroke-linejoin="round" points="582.581652 153 576 153.942346 581.418348 192 588 191.056163"></polygon>
                        <polyline id="Fill-30" fill="#FFFFFE" points="581 191.951062 585.479684 198 588 191 581 191.951062"></polyline>
                        <polygon id="Stroke-31" stroke="#3B3A39" stroke-width="2" stroke-linecap="round" stroke-linejoin="round" points="581 191.951062 585.479684 198 588 191"></polygon>
                        <polyline id="Fill-32" fill="#FFFFFE" points="581.549007 149 575 149.917391 575.449514 153 582 152.084058 581.549007 149"></polyline>
                        <polygon id="Stroke-33" stroke="#3B3A39" stroke-width="2" stroke-linecap="round" stroke-linejoin="round" points="581.549007 149 575 149.917391 575.449514 153 582 152.084058"></polygon>
                        <path d="M577.793146,142.035538 C576.016175,142.310825 574.778694,144.094688 575.03317,146.018555 L575.559572,150 L582,149.004246 L581.475052,145.022801 C581.220576,143.098934 579.57157,141.761823 577.793146,142.035538" id="Fill-34" fill="#FFFFFE"></path>
                        <path d="M577.793146,142.035538 C576.016175,142.310825 574.778694,144.094688 575.03317,146.018555 L575.559572,150 L582,149.004246 L581.475052,145.022801 C581.220576,143.098934 579.57157,141.761823 577.793146,142.035538 Z" id="Stroke-35" stroke="#3B3A39" stroke-width="2" stroke-linecap="round" stroke-linejoin="round"></path>
                        <polygon id="Fill-36" fill="#AF7BDD" points="89 299 194 299 194 231 89 231"></polygon>
                        <polygon id="Stroke-37" stroke="#3B3A39" stroke-width="2" stroke-linecap="round" stroke-linejoin="round" points="89 299 194 299 194 231 89 231"></polygon>
                        <path d="M516.999258,214 C515.342398,214 514,212.626476 514,210.931197 L514,208.07032 C514,206.375042 515.342398,205 516.999258,205 C518.656119,205 520,206.375042 520,208.07032 L520,210.931197 C520,212.626476 518.656119,214 516.999258,214" id="Fill-38" fill="#FFFFFE"></path>
                        <path d="M517.983794,213.457215 C516.318395,213.457215 514.969079,212.166527 514.969079,210.57349 L514.969079,207.885151 C514.969079,206.292114 516.318395,205 517.983794,205 C519.649193,205 521,206.292114 521,207.885151 L521,210.57349 C521,212.166527 519.649193,213.457215 517.983794,213.457215 Z M474.777354,213.706795 L276,213.706795 C276,218.287668 279.882452,222 284.671405,222 L466.105949,222 C470.894903,222 474.777354,218.287668 474.777354,213.706795 Z" id="Stroke-39" stroke="#3B3A39" stroke-width="2" stroke-linecap="round" stroke-linejoin="round"></path>
                        <path d="M503,45.1346631 C503,34.0140001 494.021316,25 482.944223,25 L268.055777,25 C256.978684,25 248,34.0140001 248,45.1346631 L248,153 L503,153 L503,45.1346631 Z" id="Stroke-41" stroke="#3B3A39" stroke-width="2" stroke-linecap="round" stroke-linejoin="round"></path>
                        <path d="M255,153 L255,45.7856035 C255,38.7352777 260.733788,33 267.784114,33 L482.215886,33 C489.264722,33 495,38.7352777 495,45.7856035 L495,153 L255,153 Z" id="Stroke-43" stroke="#3B3A39" stroke-width="2" stroke-linecap="round" stroke-linejoin="round"></path>
                        <path d="M267,181 L482,181" id="Fill-44" fill="#FFFFFE"></path>
                        <path d="M268.055777,181 L482.944223,181 C494.021316,181 503,172.102002 503,161.124452 L503,153 L248,153 L248,161.124452 C248,172.102002 256.978684,181 268.055777,181 Z" id="Stroke-45" stroke="#3B3A39" stroke-width="2" stroke-linecap="round" stroke-linejoin="round"></path>
                        <polyline id="Fill-46" fill="#FFFFFE" points="289 223 57 223 57 232 285.830788 232"></polyline>
                        <polyline id="Stroke-47" stroke="#3B3A39" stroke-width="2" stroke-linecap="round" stroke-linejoin="round" points="289 223 57 223 57 232 285.830788 232"></polyline>
                        <polyline id="Fill-48" fill="#FFFFFE" points="460 223 692 223 692 232 463.191203 232"></polyline>
                        <polyline id="Stroke-49" stroke="#3B3A39" stroke-width="2" stroke-linecap="round" stroke-linejoin="round" points="460 223 692 223 692 232 463.191203 232"></polyline>
                        <path d="M466.2527,240.078539 C458.750938,208.608075 414.317307,129 375.499561,129 C336.681816,129 292.248185,208.608075 284.747913,240.078539 C277.41014,270.86162 293.552645,294 326.079166,294 C358.607178,294 375.499561,294 375.499561,294 C375.499561,294 392.391944,294 424.918466,294 C457.446478,294 473.588983,270.86162 466.2527,240.078539 L313,260" id="Fill-50" fill="#AF7BDD"></path>
                        <path d="M466.2527,240.078539 C458.750938,208.608075 414.317307,129 375.499561,129 C336.681816,129 292.248185,208.608075 284.747913,240.078539 C277.41014,270.86162 293.552645,294 326.079166,294 C358.607178,294 375.499561,294 375.499561,294 C375.499561,294 392.391944,294 424.918466,294 C457.446478,294 473.588983,270.86162 466.2527,240.078539 Z M456.574353,276.657398 C449.847813,285.181829 438.900785,289.686343 424.919957,289.686343 L326.079166,289.686343 C312.098338,289.686343 301.15131,285.181829 294.423279,276.657398 C287.508896,267.898869 285.561896,255.263566 288.943056,241.079045 L456.574353,276.657398 Z M453.615093,217.804977 C457.611958,226.651479 460.541402,234.716661 462.057557,241.079045 C463.321765,246.384262 463.840568,251.473274 463.633345,256.223814 L453.615093,217.804977 Z" id="Stroke-51" stroke="#3B3A39" stroke-width="2" fill="#AF7BDD" stroke-linecap="round" stroke-linejoin="round"></path>
                        <polyline id="Fill-52" fill="#FFFFFE" points="339.671745 293 267 429 276.326768 429 349 293 339.671745 293"></polyline>
                        <polygon id="Stroke-53" stroke="#3B3A39" stroke-width="2" stroke-linecap="round" stroke-linejoin="round" points="339.671745 293 267 429 276.326768 429 349 293"></polygon>
                        <polyline id="Fill-54" fill="#FFFFFE" points="402.325449 293 475 429 465.674551 429 393 293 402.325449 293"></polyline>
                        <polygon id="Stroke-55" stroke="#3B3A39" stroke-width="2" stroke-linecap="round" stroke-linejoin="round" points="402.325449 293 475 429 465.674551 429 393 293"></polygon>
                        <polygon id="Fill-56" fill="#FFFFFE" points="367 429 376 429 376 293 367 293"></polygon>
                        <path d="M366.420218,429 L375.55996,429 L375.55996,293.656268 L366.420218,293.656268 L366.420218,429 Z M298,371.885603 L444.442517,371.885603 L298,371.885603 Z M476.783944,168.613196 C476.783944,166.618271 478.399901,165 480.391972,165 C482.384044,165 484,166.618271 484,168.613196 C484,170.609609 482.384044,172.226391 480.391972,172.226391 C478.399901,172.226391 476.783944,170.609609 476.783944,168.613196 Z" id="Stroke-57" stroke="#3B3A39" stroke-width="2" stroke-linecap="round" stroke-linejoin="round"></path>
                        <path d="M517.700171,209 L516.299829,209 C508.402863,209 502,215.715494 502,224 L532,224 C532,215.715494 525.598649,209 517.700171,209" id="Fill-58" fill="#FFFFFE"></path>
                        <path d="M517.700171,209 L516.299829,209 C508.402863,209 502,215.715494 502,224 L532,224 C532,215.715494 525.598649,209 517.700171,209 Z" id="Stroke-59" stroke="#3B3A39" stroke-width="2" fill="#AF7BDD" stroke-linecap="round" stroke-linejoin="round"></path>
                        <path d="M521,219 L521.976535,219 C524.879181,219 527.699451,217.946703 530,216" id="Fill-60" fill="#FFFFFE"></path>
                        <path d="M521,219 L521.976535,219 C524.879181,219 527.699451,217.946703 530,216" id="Stroke-61" stroke="#3B3A39" stroke-width="2" stroke-linecap="round" stroke-linejoin="round"></path>
                        <polygon id="Stroke-63" stroke="#3B3A39" stroke-width="2" stroke-linecap="round" stroke-linejoin="round" points="797 340 704 340 716.835793 430 784.164207 430"></polygon>
                        <polygon id="Fill-64" fill="#FFFFFE" points="105 284 179 284 179 247 105 247"></polygon>
                        <polygon id="Stroke-65" stroke="#3B3A39" stroke-width="2" fill="#AF7BDD" stroke-linecap="round" stroke-linejoin="round" points="105 284 179 284 179 247 105 247"></polygon>
                        <path d="M157.248388,262 L123.751612,262 C120.575194,262 118,264.686406 118,268 L163,268 C163,264.686406 160.424806,262 157.248388,262" id="Fill-66" fill="#FFFFFE"></path>
                        <path d="M157.248388,262 L123.751612,262 C120.575194,262 118,264.686406 118,268 L163,268 C163,264.686406 160.424806,262 157.248388,262 Z" id="Stroke-67" stroke="#3B3A39" stroke-width="2" stroke-linecap="round" stroke-linejoin="round"></path>
                        <polygon id="Fill-68" fill="#FFFFFE" points="89 367 194 367 194 299 89 299"></polygon>
                        <polygon id="Stroke-69" stroke="#3B3A39" stroke-width="2" fill="#AF7BDD" stroke-linecap="round" stroke-linejoin="round" points="89 367 194 367 194 299 89 299"></polygon>
                        <polygon id="Fill-70" fill="#FFFFFE" points="105 352 179 352 179 315 105 315"></polygon>
                        <polygon id="Stroke-71" stroke="#3B3A39" stroke-width="2" fill="#AF7BDD" stroke-linecap="round" stroke-linejoin="round" points="105 352 179 352 179 315 105 315"></polygon>
                        <path d="M157.248388,330 L123.751612,330 C120.575194,330 118,332.686406 118,336 L163,336 C163,332.686406 160.424806,330 157.248388,330" id="Fill-72" fill="#FFFFFE"></path>
                        <path d="M157.248388,330 L123.751612,330 C120.575194,330 118,332.686406 118,336 L163,336 C163,332.686406 160.424806,330 157.248388,330 Z" id="Stroke-73" stroke="#3B3A39" stroke-width="2" stroke-linecap="round" stroke-linejoin="round"></path>
                        <polygon id="Fill-74" fill="#FFFFFE" points="79 429 88 429 88 231 79 231"></polygon>
                        <polygon id="Stroke-75" stroke="#3B3A39" stroke-width="2" stroke-linecap="round" stroke-linejoin="round" points="79 429 88 429 88 231 79 231"></polygon>
                        <polygon id="Fill-76" fill="#FFFFFE" points="193 429 202 429 202 231 193 231"></polygon>
                        <polygon id="Stroke-77" stroke="#3B3A39" stroke-width="2" stroke-linecap="round" stroke-linejoin="round" points="193 429 202 429 202 231 193 231"></polygon>
                        <polygon id="Fill-78" fill="#FFFFFE" points="659 429 668 429 668 231 659 231"></polygon>
                        <polygon id="Stroke-79" stroke="#3B3A39" stroke-width="2" fill="#FFFFFF" stroke-linecap="round" stroke-linejoin="round" points="659 429 668 429 668 231 659 231"></polygon>
                        <path d="M713.77858,340.126457 L707,331.142159 L721.085012,322.836262 L728.756765,325.111604 L737.101009,320.940644 L737.101009,331.142159 L751.797375,340.126457 L713.77858,340.126457 Z M728.756765,325.111604 L723.011524,327.813196 L728.756765,325.111604 Z M737.101009,331.142159 L737.101009,334.594195 L737.101009,331.142159 Z M737.101009,325.111604 L748.974706,319 L757.949689,328.956871 L737.101009,325.111604 Z M754.482861,325.111604 L763.450388,320.940644 L770.929789,331.142159 L766.584699,340.126457 L754.482861,325.111604 Z M767.498748,326.4624 L781.785059,325.111604 L788,340.126457 L767.498748,326.4624 Z M728.756765,425 L777.748629,425 L786.368727,359.797055 L728.756765,425 Z" id="Stroke-82" stroke="#3B3A39" stroke-width="2" fill="#D8D8D8" stroke-linecap="round" stroke-linejoin="round"></path>
                        <polygon id="Fill-83" fill="#3B3A39" points="704 346 797 346 797 340 704 340"></polygon>
                        <polygon id="Stroke-84" stroke="#3B3A39" stroke-width="2" fill="#AF7BDD" stroke-linecap="round" stroke-linejoin="round" points="704 346 797 346 797 340 704 340"></polygon>
                        <path d="M552,41.5 C552,18.5802849 570.579951,0 593.500746,0 C616.420049,0 635,18.5802849 635,41.5 C635,64.4197151 616.420049,83 593.500746,83 C570.579951,83 552,64.4197151 552,41.5" id="Fill-85" fill="#FFFFFE"></path>
                        <path d="M552,41.5 C552,18.5802849 570.579951,0 593.500746,0 C616.420049,0 635,18.5802849 635,41.5 C635,64.4197151 616.420049,83 593.500746,83 C570.579951,83 552,64.4197151 552,41.5 Z" id="Stroke-86" stroke="#3B3A39" stroke-width="2" stroke-linecap="round" stroke-linejoin="round"></path>
                        <path d="M558,42 C558,23.2224477 573.222448,8 592,8 C610.776052,8 626,23.2224477 626,42 C626,60.7775523 610.776052,76 592,76 C573.222448,76 558,60.7775523 558,42" id="Fill-87" fill="#FFFFFE"></path>
                        <path d="M558,42 C558,23.2224477 573.222448,8 592,8 C610.776052,8 626,23.2224477 626,42 C626,52.1318712 621.567705,61.2287105 614.53666,67.4576801 C608.536961,72.7729555 600.64499,76 592,76 C573.222448,76 558,60.7775523 558,42 Z" id="Stroke-88" stroke="#3B3A39" stroke-width="2" fill="#AF7BDD" stroke-linecap="round" stroke-linejoin="round"></path>
                        <path d="M592,41 L592,19" id="Fill-89" fill="#FFFFFE"></path>
                        <path d="M592,41 L592,19" id="Stroke-90" stroke="#3B3A39" stroke-width="2" stroke-linecap="round" stroke-linejoin="round"></path>
                        <path d="M592,42 L600,50" id="Fill-91" fill="#FFFFFE"></path>
                        <path d="M592,42 L600,50" id="Stroke-92" stroke="#3B3A39" stroke-width="3" stroke-linecap="round" stroke-linejoin="round"></path>
                        <path d="M591.026584,12.4393225 C591.026584,11.6477692 591.672871,11 592.464425,11 C593.254496,11 593.903747,11.6477692 593.903747,12.4393225 C593.903747,13.2308758 593.269319,13.878645 592.464425,13.878645 C591.672871,13.878645 591.026584,13.2308758 591.026584,12.4393225 Z M603.040703,15.9657368 C602.30696,15.6633456 601.961581,14.8139823 602.263973,14.0802391 C602.566364,13.3450136 603.399422,13.0011178 604.134647,13.3035089 C604.86839,13.6044178 605.228592,14.4404403 604.9262,15.1727012 C604.69496,15.7344965 604.14947,16.0650515 603.587675,16.0650515 C603.399422,16.0650515 603.212651,16.0368876 603.040703,15.9657368 Z M580.017472,15.2023474 C579.715081,14.4686042 580.060459,13.634064 580.807543,13.3168497 C581.542768,13.0144586 582.377309,13.361319 582.6797,14.0935799 C582.982091,14.8288054 582.63523,15.6766864 581.901487,15.9790776 C581.729539,16.0517107 581.542768,16.0946977 581.355997,16.0946977 C580.79272,16.0946977 580.260571,15.7641427 580.017472,15.2023474 Z M612.007193,21.9364794 C611.443915,21.3746841 611.429092,20.468993 612.007193,19.9071977 C612.567506,19.3468847 613.473197,19.3320616 614.034992,19.9071977 C614.596788,20.468993 614.596788,21.3746841 614.034992,21.9364794 C613.760765,22.2255297 613.387223,22.3544907 613.015163,22.3544907 C612.65348,22.3544907 612.278455,22.2255297 612.007193,21.9364794 Z M570.923503,21.9794664 C570.360226,21.4191534 570.360226,20.51198 570.923503,19.951667 C571.483816,19.3765309 572.389507,19.3765309 572.94982,19.9368439 C573.513098,20.4986392 573.513098,21.4191534 572.94982,21.9794664 C572.678558,22.2536936 572.305016,22.3974776 571.929991,22.3974776 C571.56979,22.3974776 571.196248,22.2536936 570.923503,21.9794664 Z M618.007582,30.8881464 C617.705191,30.1529209 618.050569,29.3050399 618.784312,29.0026487 C619.516573,28.7002576 620.352595,29.0456357 620.668327,29.7793789 C620.970718,30.5131221 620.62534,31.3476623 619.891597,31.6500535 C619.703344,31.7375097 619.516573,31.7656736 619.329802,31.7656736 C618.769489,31.7656736 618.23734,31.4351186 618.007582,30.8881464 Z M565.09358,31.7078635 C564.346496,31.4054724 564.001118,30.5709322 564.302027,29.837189 C564.604418,29.1034458 565.453781,28.7432446 566.189007,29.0604588 C566.92275,29.3628499 567.268128,30.1973902 566.965737,30.9311334 C566.735979,31.4929287 566.202347,31.8234837 565.642034,31.8234837 C565.453781,31.8234837 565.26701,31.7938375 565.09358,31.7078635 Z M620.121355,41.4496015 C620.121355,40.6432251 620.769124,40.010279 621.560677,40.010279 C622.350748,39.9954559 623,40.6432251 623,41.4347784 C623,42.2411547 622.350748,42.8741009 621.560677,42.8741009 C620.769124,42.888924 620.121355,42.2411547 620.121355,41.4496015 Z M562,41.6230317 C562,41.6082086 562,41.5785624 562,41.5652216 C562,41.5355754 562,41.5222346 562,41.5074115 C562,40.7025175 562.632946,40.068089 563.439323,40.068089 C564.230876,40.068089 564.878645,40.7025175 564.878645,41.5074115 C564.878645,41.5222346 564.878645,41.5355754 564.878645,41.5652216 C564.878645,41.5785624 564.878645,41.5948678 564.878645,41.6230317 C564.878645,42.414585 564.230876,43.0623542 563.439323,43.0623542 C562.649252,43.0623542 562,42.429408 562,41.6230317 Z M618.827299,53.8965542 C618.092073,53.5956454 617.748177,52.7462821 618.050569,52.0110566 C618.35296,51.2787957 619.1875,50.9319353 619.934584,51.2358087 C620.668327,51.5367175 621.013705,52.3727401 620.712796,53.1198241 C620.481556,53.6667963 619.947925,53.9973513 619.374271,53.9973513 C619.200841,53.9973513 619.01407,53.9691874 618.827299,53.8965542 Z M564.359837,53.2932543 C564.044105,52.5595111 564.389483,51.7101477 565.123226,51.4077566 C565.856969,51.0905424 566.70485,51.4359205 567.007241,52.1696637 C567.311115,52.9034069 566.965737,53.7527702 566.230511,54.0551614 C566.058563,54.1277945 565.871792,54.1707815 565.685021,54.1707815 C565.123226,54.1707815 564.591077,53.8387442 564.359837,53.2932543 Z M612.091684,63.0201691 C611.531372,62.4598561 611.518031,61.5526827 612.078344,60.9923698 C612.638657,60.4157514 613.54583,60.4157514 614.122448,60.9775467 C614.682761,61.5378596 614.682761,62.4598561 614.122448,63.0201691 C613.833398,63.2943964 613.473197,63.4366981 613.099655,63.4366981 C612.739454,63.4366981 612.365912,63.2943964 612.091684,63.0201691 Z M571.009477,63.1506124 C570.432859,62.5888171 570.432859,61.6816437 570.994654,61.1065076 C571.554967,60.5461946 572.476963,60.5461946 573.038759,61.1065076 C573.599072,61.6683029 573.599072,62.573994 573.038759,63.1357893 C572.763049,63.4233573 572.389507,63.5671413 572.015965,63.5671413 C571.655764,63.5671413 571.282222,63.4233573 571.009477,63.1506124 Z M602.379593,68.8767739 C602.062378,68.1578538 602.407757,67.3084905 603.1415,67.0060993 C603.875243,66.6903674 604.724606,67.0357455 605.026997,67.7694887 C605.327906,68.5032319 604.98401,69.3525953 604.248785,69.6549864 C604.076837,69.7409603 603.888584,69.7691242 603.701813,69.7691242 C603.1415,69.7691242 602.594528,69.4385692 602.379593,68.8767739 Z M580.90834,69.7261372 C580.174597,69.4237461 579.829219,68.5892059 580.13161,67.8554627 C580.434001,67.1083787 581.270023,66.7615183 582.002284,67.0639094 C582.73751,67.3663005 583.097711,68.2156639 582.79532,68.9494071 C582.565562,69.494897 582.03193,69.8417574 581.455312,69.8417574 C581.281882,69.8417574 581.095111,69.7972881 580.90834,69.7261372 Z M591.154063,70.5755006 C591.140722,69.7691242 591.788491,69.1361781 592.578562,69.121355 C593.384939,69.121355 594.017885,69.7691242 594.032708,70.5606775 C594.032708,71.3522308 593.384939,72 592.593385,72 C591.803315,72 591.154063,71.3670538 591.154063,70.5755006 Z" id="Fill-93" fill="#3B3A39"></path>
                        <path d="M332,85 L346,99" id="Fill-94" fill="#FFFFFE"></path>
                        <path d="M332,85 L346,99" id="Stroke-95" stroke="#3B3A39" stroke-width="2" stroke-linecap="round" stroke-linejoin="round"></path>
                        <path d="M368,85 L382,99" id="Fill-96" fill="#FFFFFE"></path>
                        <path d="M368,85 L382,99" id="Stroke-97" stroke="#3B3A39" stroke-width="2" stroke-linecap="round" stroke-linejoin="round"></path>
                        <path d="M379,78 L406,105" id="Fill-98" fill="#FFFFFE"></path>
                        <path d="M379,78 L406,105" id="Stroke-99" stroke="#3B3A39" stroke-width="2" stroke-linecap="round" stroke-linejoin="round"></path>
                        <path d="M406,86 L418,98" id="Fill-100" fill="#FFFFFE"></path>
                        <path d="M406,86 L418,98" id="Stroke-101" stroke="#3B3A39" stroke-width="2" stroke-linecap="round" stroke-linejoin="round"></path>
                        <path d="M339,75 L376,112" id="Fill-102" fill="#FFFFFE"></path>
                        <path d="M339,75 L376,112" id="Stroke-103" stroke="#3B3A39" stroke-width="2" stroke-linecap="round" stroke-linejoin="round"></path>
                        <polyline id="Fill-104" fill="#FFFFFE" points="609 184 605.631708 223 579.65521 223 576 184 609 184"></polyline>
                        <path d="M609,184 L605.631708,223 L579.65521,223 L576,184 L609,184 Z M588.101345,223 L586.998506,184 L588.101345,223 Z M596.898655,223 L598,184 L596.898655,223 Z M577.745415,190.903759 L607.541503,190.903759 L577.745415,190.903759 Z M577.745415,198.92782 L607.541503,198.92782 L577.745415,198.92782 Z M578.577775,206.95188 L606.710637,206.95188 L578.577775,206.95188 Z M579.329439,214.97594 L605.958973,214.97594 L579.329439,214.97594 Z" id="Stroke-105" stroke="#3B3A39" stroke-width="2" stroke-linecap="round" stroke-linejoin="round"></path>
                        <path d="M611.287636,179 L574.712364,179 C573.214582,179 572,180.341334 572,181.999163 C572,183.655317 573.214582,185 574.712364,185 L611.287636,185 C612.785418,185 614,183.655317 614,181.999163 C614,180.341334 612.785418,179 611.287636,179" id="Fill-106" fill="#FFFFFE"></path>
                        <path d="M611.287636,179 L574.712364,179 C573.214582,179 572,180.341334 572,181.999163 C572,183.655317 573.214582,185 574.712364,185 L611.287636,185 C612.785418,185 614,183.655317 614,181.999163 C614,180.341334 612.785418,179 611.287636,179 Z" id="Stroke-107" stroke="#3B3A39" stroke-width="2" stroke-linecap="round" stroke-linejoin="round"></path>
                        <polygon id="Fill-108" fill="#FFFFFE" points="118 223 216 223 216 169 118 169"></polygon>
                        <polygon id="Stroke-109" stroke="#3B3A39" stroke-width="2" stroke-linecap="round" stroke-linejoin="round" points="118 223 216 223 216 169 118 169"></polygon>
                        <path d="M128.999227,178 C126.789453,178 125,176.173918 125,173.920858 L125,169.079142 C125,166.824506 126.789453,165 128.999227,165 C131.209001,165 133,166.824506 133,169.079142 L133,173.920858 C133,176.173918 131.209001,178 128.999227,178" id="Fill-110" fill="#FFFFFE"></path>
                        <path d="M128.999227,178 C126.789453,178 125,176.173918 125,173.920858 L125,169.079142 C125,166.824506 126.789453,165 128.999227,165 C131.209001,165 133,166.824506 133,169.079142 L133,173.920858 C133,176.173918 131.209001,178 128.999227,178 Z" id="Stroke-111" stroke="#3B3A39" stroke-width="2" fill="#AF7BDD" stroke-linecap="round" stroke-linejoin="round"></path>
                        <path d="M144,178 C141.790653,178 140,176.173918 140,173.920858 L140,169.079142 C140,166.824506 141.790653,165 144,165 C146.209347,165 148,166.824506 148,169.079142 L148,173.920858 C148,176.173918 146.209347,178 144,178" id="Fill-112" fill="#FFFFFE"></path>
                        <path d="M144,178 C141.790653,178 140,176.173918 140,173.920858 L140,169.079142 C140,166.824506 141.790653,165 144,165 C146.209347,165 148,166.824506 148,169.079142 L148,173.920858 C148,176.173918 146.209347,178 144,178 Z" id="Stroke-113" stroke="#3B3A39" stroke-width="2" fill="#AF7BDD" stroke-linecap="round" stroke-linejoin="round"></path>
                        <path d="M159,178 C156.790653,178 155,176.173918 155,173.920858 L155,169.079142 C155,166.824506 156.790653,165 159,165 C161.209347,165 163,166.824506 163,169.079142 L163,173.920858 C163,176.173918 161.209347,178 159,178" id="Fill-114" fill="#FFFFFE"></path>
                        <path d="M159,178 C156.790653,178 155,176.173918 155,173.920858 L155,169.079142 C155,166.824506 156.790653,165 159,165 C161.209347,165 163,166.824506 163,169.079142 L163,173.920858 C163,176.173918 161.209347,178 159,178 Z" id="Stroke-115" stroke="#3B3A39" stroke-width="2" fill="#AF7BDD" stroke-linecap="round" stroke-linejoin="round"></path>
                        <path d="M174,178 C171.790653,178 170,176.173918 170,173.920858 L170,169.079142 C170,166.824506 171.790653,165 174,165 C176.207802,165 178,166.824506 178,169.079142 L178,173.920858 C178,176.173918 176.207802,178 174,178" id="Fill-116" fill="#FFFFFE"></path>
                        <path d="M174,178 C171.790653,178 170,176.173918 170,173.920858 L170,169.079142 C170,166.824506 171.790653,165 174,165 C176.207802,165 178,166.824506 178,169.079142 L178,173.920858 C178,176.173918 176.207802,178 174,178 Z" id="Stroke-117" stroke="#3B3A39" stroke-width="2" fill="#AF7BDD" stroke-linecap="round" stroke-linejoin="round"></path>
                        <path d="M190.000773,178 C187.790999,178 186,176.173918 186,173.920858 L186,169.079142 C186,166.824506 187.790999,165 190.000773,165 C192.210547,165 194,166.824506 194,169.079142 L194,173.920858 C194,176.173918 192.210547,178 190.000773,178" id="Fill-118" fill="#FFFFFE"></path>
                        <path d="M190.000773,178 C187.790999,178 186,176.173918 186,173.920858 L186,169.079142 C186,166.824506 187.790999,165 190.000773,165 C192.210547,165 194,166.824506 194,169.079142 L194,173.920858 C194,176.173918 192.210547,178 190.000773,178 Z" id="Stroke-119" stroke="#3B3A39" stroke-width="2" fill="#AF7BDD" stroke-linecap="round" stroke-linejoin="round"></path>
                        <path d="M205,178 C202.790653,178 201,176.173918 201,173.920858 L201,169.079142 C201,166.824506 202.790653,165 205,165 C207.209347,165 209,166.824506 209,169.079142 L209,173.920858 C209,176.173918 207.209347,178 205,178" id="Fill-120" fill="#FFFFFE"></path>
                        <path d="M205,178 C202.790653,178 201,176.173918 201,173.920858 L201,169.079142 C201,166.824506 202.790653,165 205,165 C207.209347,165 209,166.824506 209,169.079142 L209,173.920858 C209,176.173918 207.209347,178 205,178 Z" id="Stroke-121" stroke="#3B3A39" stroke-width="2" fill="#AF7BDD" stroke-linecap="round" stroke-linejoin="round"></path>
                        <path d="M812,429 L0,429" id="Stroke-124" stroke="#3B3A39" stroke-width="2" stroke-linecap="round" stroke-linejoin="round"></path>
                        <path d="M626.654725,388 L641.512308,388 L641.512308,372.006504 M641.512308,261.964317 L641.512308,231 M220,283.252097 L220,326.86678" id="Stroke-138" stroke="#3B3A39" stroke-width="2" stroke-linecap="round" stroke-linejoin="round"></path>
                        <text id="AUG" font-family="Montserrat-Black, Montserrat" font-size="10.4599" font-weight="700" letter-spacing="-0.02" fill="#3B3A39">
                            <tspan x="149" y="192">A</tspan>
                            <tspan x="157.253781" y="192" letter-spacing="0.189198">U</tspan>
                            <tspan x="165.643541" y="192">G</tspan>
                        </text>
                        <text id="17" font-family="Montserrat-Regular, Montserrat" font-size="10.4599" font-weight="normal" fill="#3B3A39">
                            <tspan x="160" y="206">17</tspan>
                        </text>
                    </g>
                </g>
            </g>
        </g>
    </g>
</svg>