<?xml version="1.0" encoding="UTF-8"?>
<svg width="22px" height="48px" viewBox="0 0 22 48" version="1.1" xmlns="http://www.w3.org/2000/svg" xmlns:xlink="http://www.w3.org/1999/xlink">
    <!-- Generator: Sketch 50.2 (55047) - http://www.bohemiancoding.com/sketch -->
    <title>gulp.3269df1</title>
    <desc>Created with Sketch.</desc>
    <defs></defs>
    <g id="Page-1" stroke="none" stroke-width="1" fill="none" fill-rule="evenodd">
        <g id="Desktop-HD" transform="translate(-157.000000, -1905.000000)" fill="#EB4A4B">
            <g id="seccion-exp" transform="translate(0.000000, 1248.000000)">
                <g id="gulp" transform="translate(140.000000, 644.000000)">
                    <g id="gulp.3269df1" transform="translate(17.358333, 13.000000)">
                        <path d="M0.00865565773,12.8720508 C0.35370165,16.471486 0.695993569,20.050647 1.04615427,23.7101246 C1.61703424,22.737357 2.03014518,21.8043579 2.65335253,21.0401797 C3.23367504,20.3282464 3.96507812,19.6712871 4.76100519,19.2162892 C5.80007755,18.6221016 7.16255677,19.1815892 7.49934054,20.2354533 C7.58983151,20.5181212 7.37383351,20.8970912 7.29829322,21.232004 C7.04413163,21.0990526 6.71639696,21.0257539 6.5503657,20.822233 C5.8449296,19.9578539 5.42001549,19.8557035 4.63982598,20.6027267 C3.18449517,21.996962 2.36614207,23.7436549 2.05375152,25.706735 C1.99355535,26.0864848 2.23315969,26.5126311 2.33427351,26.9173336 C2.73204033,26.781653 3.1939377,26.7317475 3.51537735,26.4946963 C4.5603513,25.7238901 5.20795188,24.6754844 5.56519448,23.4223882 C5.64270196,23.1510269 6.0628948,22.9759678 6.32571204,22.7564615 C6.45161252,23.013007 6.73882298,23.3151693 6.67862681,23.5183003 C6.12505816,25.4053525 5.52427682,27.2803182 4.89398757,29.1439772 C4.83025045,29.3326825 4.48048319,29.4266452 4.26291143,29.5646651 C4.17517454,29.3166971 3.99065165,29.0570325 4.02015957,28.8234903 C4.08625732,28.294024 4.25819016,27.7774239 4.37818905,27.2924047 L1.52969078,28.5918975 C1.68903357,30.3939544 1.85427795,32.4155175 2.05021056,34.4343515 C2.20050426,35.975964 2.45505928,36.3752081 3.9871107,36.6676232 C5.77489746,37.0087742 7.59612653,37.2267209 9.41342122,37.3592824 C12.0986423,37.5553955 14.7602571,37.3128859 17.3726919,36.6169379 C18.3452731,36.3580531 18.733204,35.7240971 18.8028427,34.7778418 C18.8665798,33.9064447 19.0090047,33.0405061 19.1077579,32.1714484 C19.3017233,30.4594554 19.4901806,28.7470725 19.6884738,26.9633403 C19.032611,27.3750607 18.5168125,27.835907 17.9136705,28.0312403 C17.4745926,28.1735489 16.9206305,27.9653494 16.4174221,27.9131045 C16.5138146,27.4553774 16.507913,26.9395572 16.7305995,26.5535692 C17.0933503,25.9227323 17.6056078,25.3757211 18.0541283,24.7932302 L17.8609497,24.5628071 C17.5395101,24.7511224 17.1401695,24.8747166 16.9115814,25.141789 C16.4465366,25.6852913 15.9913276,26.2670024 15.6801174,26.9040775 C15.1592042,27.9704179 14.7622243,29.0960212 14.2959991,30.1892638 C14.093378,30.6633662 13.9186911,31.3885557 13.2400088,31.111736 C12.5141139,30.8150321 13.0247977,30.1814661 13.1951568,29.7307569 C13.4662362,29.0118056 13.8242657,28.324825 14.0666241,27.7961385 C13.3796797,27.877235 12.6832926,27.9750966 11.9837581,28.035529 C11.687892,28.0604818 11.3361575,27.8998484 11.0941926,28.0082369 C10.2896098,28.3684924 9.77971291,28.2238443 9.61250134,27.3411406 C9.23991462,27.580921 8.92437656,27.9056967 8.55257671,27.9930313 C8.10130219,28.0994704 7.48911113,28.1692602 7.15862238,27.945855 C6.89383794,27.766897 6.79744539,27.0943422 6.88793636,26.6997768 C7.06773797,25.9153245 7.40373487,25.1612834 7.72281389,24.4154299 C7.92032026,23.953414 8.11900695,23.2157482 8.78549259,23.5370149 C9.44410946,23.8539929 8.8460822,24.3889176 8.69421475,24.818183 C8.45854479,25.4817703 8.21854701,26.1441881 7.98090986,26.8069956 L8.35861129,27.03313 C8.71821453,26.7235599 9.16634153,26.4713031 9.41814248,26.0915533 C9.83046654,25.4708535 10.0795134,24.745664 10.4698049,24.108589 C10.6315083,23.8446356 10.9797018,23.6933595 11.2436994,23.4910082 C11.2972071,23.8270907 11.4254682,24.1725304 11.3829768,24.4969162 C11.3408788,24.8248111 11.1083564,25.124634 10.9970131,25.4490199 C10.8298016,25.9348188 10.694852,26.4315346 10.5248864,26.9964806 C11.3286822,27.0268918 11.6729413,26.6915891 11.8999556,26.1001308 C12.6183752,24.2314033 13.3446636,22.3646252 14.1342956,20.5247493 C14.2692452,20.2097208 14.7279951,20.0319324 15.0376315,19.7902026 C15.0734345,20.1699523 15.244187,20.6003874 15.1226144,20.9204844 C14.4754072,22.6161022 13.7487254,24.2813088 13.0657153,25.9636705 C12.9504377,26.2471182 12.9134545,26.5617568 12.8406682,26.8619697 C14.0441981,26.3258753 15.0486478,25.7332473 15.415333,24.4657253 C15.5050371,24.1577147 15.8725091,23.9288511 16.1121134,23.6633382 L16.669223,24.2481684 C16.8384018,24.1070294 16.9934168,23.946396 17.1771528,23.8290401 C17.7555081,23.4598173 18.378322,23.1342618 18.9881524,23.7062258 C19.6192286,24.2976841 19.1415936,24.8739368 18.8118918,25.3854683 C18.4530754,25.9433963 18.013604,26.4498593 17.6091488,26.9785458 C18.5187797,26.3976145 19.7608666,26.1371701 19.926111,24.8817345 C20.3289925,21.8152747 20.6830876,18.7425767 21.0422974,15.6706584 C21.1489193,14.7614424 21.205968,13.846378 21.2889836,12.898953 C14.1244597,14.617964 7.11377033,14.628491 0.00865565773,12.8720508 Z M3.08377478,36.799015 C3.42882078,37.7023828 3.95288151,38.5897652 4.09019171,39.5325115 C4.38015625,41.539259 4.45372934,43.5764176 4.65910449,45.5968111 C4.68900585,45.8911757 4.88139752,46.2954883 5.1213953,46.4249307 C8.65447741,48.3275784 12.2217887,48.6574227 15.8264767,46.5765967 C16.3643078,46.2662468 16.4638479,45.8564757 16.5334866,45.280223 C16.8706638,42.4804458 16.1199822,39.5106779 17.9262606,36.8742632 C12.868209,38.1176123 7.93172999,38.1562111 3.08377478,36.799015 Z M15.2768424,13.3746149 C16.9930233,13.2104726 18.6883519,12.8112285 20.3856477,12.4813842 C20.7055136,12.4193922 20.9895765,12.1780523 21.2901639,12.0193684 C20.8939709,11.6743185 20.5512855,11.5082267 20.193256,11.4665089 C18.4109774,11.2579194 16.6224038,11.097286 14.8413055,10.8785595 C14.5721932,10.8454191 14.0918042,10.5163547 14.1118696,10.4563121 C14.6316025,8.90456256 14.606029,7.14812244 15.7855591,5.84044205 C17.2762994,4.18732194 18.7823838,2.54862763 20.2770585,0.90915356 C19.1652,-0.276102371 19.1502493,-0.277661918 18.142652,0.759826908 C17.5729524,1.34621668 17.0524326,1.98797039 16.4343399,2.51899624 C14.1472791,4.48324603 12.5408677,6.80970068 12.2276903,9.87694029 C12.155691,10.580686 11.7657929,10.8348922 11.020226,10.845809 C8.55887174,10.8812887 6.09476336,10.9483493 3.6389172,11.1085928 C2.42201041,11.1877398 1.2200543,11.4973099 0.0110162917,11.7023904 L0,12.1503703 C0.756583173,12.3815732 1.4986091,12.685295 2.27132328,12.8322824 C6.57711956,13.6502649 10.9234401,13.7906242 15.2768424,13.3746149 Z M13.9013797,12.303206 C12.9268314,13.0829796 12.1214618,13.0829796 11.3436329,12.303206 L13.9013797,12.303206 Z" id="Shape"></path>
                    </g>
                </g>
            </g>
        </g>
    </g>
</svg>