<?xml version="1.0" encoding="UTF-8"?>
<svg width="41px" height="40px" viewBox="0 0 41 40" version="1.1" xmlns="http://www.w3.org/2000/svg" xmlns:xlink="http://www.w3.org/1999/xlink">
    <!-- Generator: Sketch 50.2 (55047) - http://www.bohemiancoding.com/sketch -->
    <title>javascript.98fea77</title>
    <desc>Created with Sketch.</desc>
    <defs></defs>
    <g id="Page-1" stroke="none" stroke-width="1" fill="none" fill-rule="evenodd">
        <g id="Desktop-HD" transform="translate(-150.000000, -1477.000000)" fill-rule="nonzero">
            <g id="seccion-exp" transform="translate(0.000000, 1248.000000)">
                <g id="javascript" transform="translate(140.000000, 204.000000)">
                    <g id="javascript.98fea77" transform="translate(10.000000, 25.000000)">
                        <polygon id="Shape" fill="#F0DB4F" points="0 0 40.0833333 0 40.0833333 40 4.26585885e-16 40"></polygon>
                        <path d="M37.1112864,30.085437 C36.8164733,28.2732918 35.6192171,26.751166 32.0727797,25.3318479 C30.8408018,24.7730688 29.4673651,24.3729436 29.0580989,23.4514816 C28.9127821,22.9152313 28.8934923,22.6131542 28.9854405,22.2885483 C29.2493899,21.2350862 30.5234839,20.9066725 31.5333071,21.2087496 C32.1836963,21.4238844 32.7993638,21.9185673 33.1706932,22.7077119 C34.907422,21.5977691 34.9038855,21.6050671 36.1165736,20.842259 C35.6725857,20.1629029 35.4356421,19.8494028 35.1450085,19.5587488 C34.1004636,18.4072385 32.6771948,17.8141902 30.4009934,17.8595652 L29.2153111,18.010921 C28.0791395,18.2942769 26.9963363,18.882883 26.361379,19.6720277 C24.4561857,21.8056057 24.9995162,25.5396846 27.3178337,27.0764065 C29.601751,28.768292 32.9568975,29.1531865 33.3854535,30.7352835 C33.8024355,32.6721306 31.9432163,33.299131 30.0952494,33.0763808 C28.7333866,32.7968326 27.9759388,32.1136688 27.157085,30.8714085 C25.6499054,31.7322647 25.6499054,31.7322647 24.1002881,32.6118421 C24.4677596,33.4047945 24.8538779,33.7636697 25.4698669,34.4506412 C28.385205,37.3692388 35.6806231,37.2258157 36.9891174,32.8082557 C37.0421645,32.6565825 37.3945256,31.6450051 37.1112864,30.085437 Z M22.0378825,18.0934211 L18.2734699,18.0934211 L18.258038,27.6989646 C18.258038,29.7417926 18.3650966,31.6145435 18.0284889,32.1885534 C17.4777639,33.3175348 16.0506371,33.177602 15.4002479,32.9586596 C14.7382848,32.6375441 14.4016771,32.1809381 14.0117008,31.5355339 C13.9046422,31.3502261 13.8242678,31.2068029 13.7972621,31.1956972 L10.7366071,33.045602 C11.2455375,34.0765352 11.9952693,34.9713434 12.955582,35.5526514 C14.3901032,36.4024018 16.3181229,36.6629116 18.3345544,36.2059882 C19.6469066,35.8287092 20.7792203,35.0471799 21.3720614,33.8575928 C22.2291734,32.2980247 22.0452769,30.4103602 22.037561,28.3224745 C22.0568508,24.9161746 22.0378825,21.5105094 22.0378825,18.0934211 Z" id="Shape" fill="#323330"></path>
                    </g>
                </g>
            </g>
        </g>
    </g>
</svg>