<?xml version="1.0" encoding="UTF-8"?>
<svg width="40px" height="37px" viewBox="0 0 40 37" version="1.1" xmlns="http://www.w3.org/2000/svg" xmlns:xlink="http://www.w3.org/1999/xlink">
    <!-- Generator: Sketch 50.2 (55047) - http://www.bohemiancoding.com/sketch -->
    <title>jquery.0899410</title>
    <desc>Created with Sketch.</desc>
    <defs></defs>
    <g id="Page-1" stroke="none" stroke-width="1" fill="none" fill-rule="evenodd">
        <g id="Desktop-HD" transform="translate(-739.000000, -1809.000000)" fill="#0868AC" fill-rule="nonzero">
            <g id="seccion-exp" transform="translate(0.000000, 1248.000000)">
                <g id="codeigniter-copy" transform="translate(730.000000, 534.000000)">
                    <g id="jquery.0899410" transform="translate(9.672917, 27.000000)">
                        <path d="M2.48182717,8.68967062 C-0.978241186,13.5768396 -0.547497342,19.9359247 2.09563222,25.1292547 C2.15837713,25.2538157 2.22425929,25.3762184 2.28920028,25.4986212 L2.41280776,25.7326355 L2.48998401,25.8673711 L2.6277091,26.10971 C2.70990494,26.2518452 2.79398312,26.3933638 2.87994366,26.5348823 L3.02394324,26.7679717 C3.11931551,26.9193564 3.21688385,27.0688913 3.31664827,27.2181178 L3.44151065,27.4074259 C3.57923574,27.609375 3.72009807,27.8110158 3.86566628,28.0089568 L3.87790154,28.0243728 L3.94943074,28.1193351 C4.07523429,28.2898357 4.20480254,28.458178 4.33593942,28.6246704 L4.48150762,28.8065788 C4.59852689,28.9511805 4.7174285,29.0948573 4.83852619,29.2379174 L4.97499638,29.3982435 C5.13750571,29.5863182 5.30346601,29.773468 5.47256356,29.956918 L5.48291647,29.9670925 L5.50205367,29.9880583 C5.66738652,30.1653418 5.83648407,30.3386173 6.00777769,30.5118927 L6.16997329,30.6725271 C6.30267879,30.8038711 6.43758036,30.9330568 6.57373682,31.061626 L6.73906967,31.2157856 C6.92102993,31.3844363 7.10487253,31.5496954 7.29247983,31.7112547 L7.30126411,31.7180377 L7.39757756,31.7988174 C7.56291041,31.939411 7.73106678,32.0790796 7.90047806,32.2159734 L8.10879118,32.3790743 C8.24714371,32.4882193 8.38706487,32.5955144 8.52792721,32.7009596 L8.75192656,32.868377 C8.90753395,32.9809135 9.06408251,33.0916001 9.2221997,33.1998202 L9.39349332,33.3191398 L9.440552,33.3521299 C9.59051235,33.453567 9.74392367,33.5513042 9.89733499,33.6490414 L10.0949815,33.7785355 C10.3302749,33.9246788 10.5687056,34.0692806 10.8099598,34.2089492 L11.0076063,34.3184026 C11.1848606,34.4189146 11.3633699,34.5175768 11.5440753,34.6140807 C11.6419574,34.6658784 11.7423492,34.7149012 11.8408587,34.7645406 C11.9685446,34.8302126 12.0952894,34.8968095 12.2251713,34.9606316 L12.3139554,35.0028714 L12.4711314,35.0774846 C12.6722289,35.1718303 12.8748949,35.2646344 13.0797571,35.354047 L13.2083842,35.4107778 C13.4430502,35.5115982 13.6795985,35.6084104 13.9183429,35.7009062 L14.0912051,35.7678115 C14.3120672,35.851366 14.5360666,35.9339956 14.7610071,36.0116921 L14.8450853,36.0403657 C15.0919865,36.1251535 15.3410838,36.203775 15.5920635,36.2805465 L15.7724551,36.3335774 C16.0278269,36.4091156 16.2803752,36.4994532 16.5435901,36.5472426 C33.2773453,39.5462643 38.1381939,26.6646847 38.1381939,26.6646847 C34.055696,31.8916215 26.8092857,33.2704253 19.9434234,31.7353036 C19.6833457,31.6776479 19.4311111,31.5977932 19.177308,31.5241049 L18.9862497,31.4670658 C18.7384073,31.3924526 18.4927609,31.3138312 18.2483695,31.2312016 L18.1470365,31.1951282 C17.9280567,31.11959 17.7119005,31.0397353 17.4963717,30.9580307 L17.313784,30.8874256 C17.0778631,30.7958548 16.8431971,30.7002758 16.6113547,30.6003803 L16.4711198,30.5393331 C16.2719047,30.4505372 16.0748856,30.3611246 15.878494,30.2683205 L15.7072004,30.1875408 C15.5531617,30.1138525 15.4006915,30.0355394 15.2488488,29.9584596 C15.1472021,29.905737 15.0436729,29.8560976 14.9429674,29.8012168 C14.7572424,29.7034796 14.5752821,29.6020425 14.3936356,29.4984472 L14.2082244,29.3967019 C13.9669702,29.2573416 13.7288532,29.1127398 13.4929324,28.9659798 L13.2999917,28.8395689 C13.1290118,28.7313489 12.9586594,28.6209706 12.7908168,28.5068924 L12.6270525,28.3937392 C12.4651706,28.2812027 12.3048574,28.1674329 12.145799,28.0518132 L11.93278,27.8933371 C11.7868981,27.7838837 11.6419574,27.6735054 11.4985852,27.5597356 L11.3050172,27.4071175 C11.1224295,27.2594326 10.9423516,27.1114394 10.764156,26.9591296 L10.704862,26.9101069 C10.5122352,26.7439228 10.323373,26.5734222 10.1363931,26.402305 L9.97607986,26.2509202 C9.83772732,26.1214261 9.70157085,25.9910071 9.56761046,25.8571965 L9.40761092,25.700262 C9.23725848,25.5288365 9.07004328,25.3552527 8.90627905,25.1792024 L8.88149481,25.1533036 C8.70831884,24.9670788 8.53890757,24.7768458 8.37294727,24.5847628 L8.23992805,24.4293699 C8.11632056,24.2829183 7.99365426,24.1346167 7.87381147,23.9847735 L7.73985107,23.8207477 C7.59585149,23.6369894 7.45498916,23.454156 7.31726407,23.2676229 C3.50551046,18.1575391 2.13578896,11.109977 5.18236832,5.32220743 M13.2228155,4.5717583 C10.7202346,8.11064701 10.856391,12.8482811 12.8083853,16.5909688 C13.1356001,17.2183986 13.503599,17.8273292 13.9152056,18.4066611 C14.2901065,18.934812 14.7057916,19.5631667 15.2033588,19.987414 C15.3837504,20.1825802 15.5722989,20.3731215 15.7649257,20.5602713 L15.9130037,20.7036397 C16.0999836,20.8818483 16.289787,21.0569736 16.4864923,21.2271659 L16.5097079,21.2468983 L16.5153549,21.2524481 C16.7327661,21.4399062 16.9570791,21.6196563 17.1851569,21.7972482 L17.3373133,21.9137929 C17.5660185,22.0861434 17.7991159,22.2551024 18.0378603,22.4166617 L18.0582524,22.4317693 C18.1636639,22.5032994 18.2709577,22.5698963 18.3779377,22.6389599 L18.5294667,22.7373137 C18.7001329,22.8449171 18.8729951,22.9497457 19.0486809,23.0502578 L19.1224062,23.0921892 C19.2739351,23.177902 19.4273464,23.2623815 19.5813852,23.3443944 L19.7448357,23.4279489 C19.8511884,23.4825214 19.957541,23.5383272 20.065776,23.5913581 L20.1144033,23.6129405 C20.3349516,23.7196189 20.5573824,23.8225976 20.784519,23.9197182 L20.932597,23.9795321 C21.1142435,24.0553786 21.2977724,24.1293753 21.481615,24.1984388 L21.7169084,24.2832266 C21.8841236,24.3442738 22.0519663,24.3997713 22.2210638,24.4555771 L22.4491416,24.5274155 C22.6897683,24.6007955 22.9275716,24.6935996 23.1782375,24.734606 C36.0983567,26.8382685 39.08125,17.0617724 39.08125,17.0617724 C36.3926304,20.8673573 31.1854299,22.6833578 25.6290539,21.2657058 C25.3821526,21.2018837 25.1390161,21.1328202 24.8971344,21.0578986 L24.6772135,20.9879101 C24.5052924,20.9333376 24.3346263,20.8753736 24.1655287,20.8146347 L23.9346274,20.7301552 C23.7489025,20.6598584 23.5656873,20.5877117 23.3837271,20.5118651 L23.2353354,20.4502013 C23.0072576,20.3527724 22.7826308,20.2497938 22.561455,20.1421903 C22.4475729,20.0876178 22.3355733,20.0299621 22.2232599,19.9732314 L22.0281232,19.8745692 C21.8844373,19.798106 21.7413789,19.7185596 21.6005166,19.6371633 L21.4982424,19.5801243 C21.3231841,19.4799205 21.1509493,19.3763252 20.9802831,19.2693384 L20.8240483,19.1669764 C20.7114211,19.0954464 20.5991077,19.0223747 20.4886767,18.9489947 C20.2505597,18.7874354 20.0187173,18.6184764 19.7903258,18.4470509 L19.6331498,18.3252648 C17.2011569,16.4383508 15.2730056,13.8589517 14.3566161,10.9345433 C13.3959915,7.90191486 13.6030497,4.49745336 15.2673586,1.73429596 M22.2565147,1.49534851 C20.7813817,3.62891794 20.636441,6.27861384 21.6601243,8.63478979 C22.7396505,11.1361841 24.9514088,13.0980197 27.5330483,14.0288356 C27.639401,14.0673755 27.7460673,14.1019073 27.8536749,14.1379806 L27.9951646,14.1820703 C28.1473211,14.2289348 28.2982226,14.2835073 28.4553986,14.3127977 C35.5894955,15.6675526 37.5245487,10.71502 38.0393707,9.98584488 C36.3446305,12.3842606 33.4960114,12.9598927 30.0008059,12.1261973 C29.7247282,12.0605253 29.4213566,11.9624798 29.1553181,11.8696757 C28.8139858,11.7500478 28.477673,11.6137707 28.1510858,11.4599194 C27.5305385,11.1667077 26.938854,10.8112156 26.3904634,10.4042341 C23.2629431,8.07179878 21.3200468,3.62305987 23.3608252,0" id="Shape"></path>
                    </g>
                </g>
            </g>
        </g>
    </g>
</svg>