<?xml version="1.0" encoding="UTF-8"?>
<svg width="47px" height="31px" viewBox="0 0 47 31" version="1.1" xmlns="http://www.w3.org/2000/svg" xmlns:xlink="http://www.w3.org/1999/xlink">
    <!-- Generator: Sketch 50.2 (55047) - http://www.bohemiancoding.com/sketch -->
    <title>laravel.a10399a</title>
    <desc>Created with Sketch.</desc>
    <defs></defs>
    <g id="Page-1" stroke="none" stroke-width="1" fill="none" fill-rule="evenodd">
        <g id="Desktop-HD" transform="translate(-145.000000, -1704.000000)" fill="#FB503B" fill-rule="nonzero">
            <g id="seccion-exp" transform="translate(0.000000, 1248.000000)">
                <g id="laravel" transform="translate(140.000000, 424.000000)">
                    <g id="laravel.a10399a" transform="translate(5.904167, 32.000000)">
                        <path d="M45.9142846,14.4805418 C45.604094,14.144197 41.3897799,8.95187316 40.641044,8.06896789 C39.892308,7.18606263 39.5393324,7.34372429 39.0793946,7.41729973 C38.6194568,7.49087516 33.2820388,8.36326965 32.6616575,8.46837742 C32.0412763,8.57348519 31.6562121,8.81523306 32.0305801,9.3407719 C32.3728594,9.80324609 35.8812223,14.7012681 36.6513507,15.7733674 L22.6927726,19.0632406 L11.61148,0.827042594 C11.1729346,0.185885202 11.0766685,-0.0453518906 10.0712231,0.00720199404 C9.06577759,0.0492451017 1.36449311,0.679891717 0.818985457,0.721934825 C0.273477806,0.763977933 -0.336207215,1.0057258 0.219996664,2.27752981 C0.765504315,3.54933382 9.51501918,22.0693228 9.76103244,22.6053724 C10.0070457,23.141422 10.6381232,24.0138165 12.1248989,23.6669609 C13.6437634,23.3095944 18.917004,21.9537042 21.7942894,21.2179498 C23.3131539,23.9297303 26.4257564,29.4163558 26.9926565,30.2046641 C27.7627849,31.2557418 28.2869001,31.0770586 29.4634852,30.7302029 C30.3833609,30.4569227 43.8392163,25.7060516 44.4489013,25.4537929 C45.0585863,25.2120451 45.4329543,25.0333619 45.0158014,24.4342476 C44.716307,23.9927949 41.1651592,19.32601 39.3040154,16.876999 C40.5768666,16.5406541 45.1013712,15.3634471 45.5933977,15.226807 C46.1496016,15.0901669 46.2244752,14.8168867 45.9142846,14.4805418 Z M20.5428307,19.5782686 C20.3716911,19.609801 12.5634443,21.4491869 12.1462914,21.5437839 C11.7291385,21.6383809 11.7291385,21.585827 11.6863536,21.4491869 C11.6435686,21.3125468 2.39133104,2.57183156 2.2629763,2.34059447 C2.13462156,2.10935738 2.14531778,1.92016339 2.2629763,1.92016339 C2.38063481,1.92016339 9.64337392,1.279006 9.90008341,1.26849522 C10.1567929,1.25798445 10.1247042,1.31053833 10.2209703,1.46819999 C10.2209703,1.46819999 20.4572609,18.8320035 20.6390968,19.136816 C20.8209326,19.4521393 20.7139704,19.5467363 20.5428307,19.5782686 Z M42.5877575,23.6354285 C42.7161123,23.8246225 42.8337708,23.9507518 42.4487066,24.0873919 C42.0529461,24.224032 29.217472,28.4808967 28.9714587,28.5860045 C28.7254455,28.6911122 28.5222171,28.7226446 28.2013303,28.2706811 C27.8804434,27.8187177 23.7089143,20.7134325 23.7089143,20.7134325 L37.3145169,17.2343654 C37.6567962,17.1292576 37.7637585,17.0556822 37.9776831,17.392027 C38.1916076,17.7283719 42.4594028,23.4462345 42.5877575,23.6354285 Z M43.454152,14.144197 C43.1439614,14.2072616 38.1488227,15.4265117 38.1488227,15.4265117 L34.0628635,9.91886463 C33.945205,9.76120298 33.8489389,9.60354133 34.1377371,9.56149822 C34.4265352,9.51945511 39.0686984,8.69961451 39.2719267,8.6575714 C39.4858513,8.61552829 39.6676872,8.55246363 39.9243967,8.89931927 C40.1811061,9.24617491 43.7108615,13.6396797 43.8499125,13.8078521 C43.9889635,13.9760245 43.7643427,14.0811323 43.454152,14.144197 Z" id="Shape"></path>
                    </g>
                </g>
            </g>
        </g>
    </g>
</svg>