<?xml version="1.0" encoding="UTF-8"?>
<svg width="50px" height="25px" viewBox="0 0 50 25" version="1.1" xmlns="http://www.w3.org/2000/svg" xmlns:xlink="http://www.w3.org/1999/xlink">
    <!-- Generator: Sketch 50.2 (55047) - http://www.bohemiancoding.com/sketch -->
    <title>php.155529c</title>
    <desc>Created with Sketch.</desc>
    <defs></defs>
    <g id="Page-1" stroke="none" stroke-width="1" fill="none" fill-rule="evenodd">
        <g id="Desktop-HD" transform="translate(-746.000000, -1483.000000)" fill="#6181B6" fill-rule="nonzero">
            <g id="seccion-exp" transform="translate(0.000000, 1248.000000)">
                <g id="css-copy" transform="translate(740.000000, 204.000000)">
                    <g id="php.155529c" transform="translate(6.666667, 31.000000)">
                        <path d="M24.5510417,0 C10.9923919,0 0,5.59655696 0,12.5 C0,19.403443 10.9923919,25 24.5510417,25 C38.1096914,25 49.1020833,19.403443 49.1020833,12.5 C49.1020833,5.59655696 38.1096914,0 24.5510417,0 Z M18.1627235,14.9353219 C17.5768162,15.4860147 16.92621,15.7133168 16.2096993,15.9474823 C15.4931885,16.1820516 14.5813754,16.1336036 13.4726524,16.1336036 L10.9598415,16.1336036 L10.2634236,20.1709409 L7.32946687,20.1709409 L9.94756417,6.44399406 L15.5896342,6.44399406 C17.2870775,6.44399406 18.5251984,6.93453054 19.3035951,7.82960822 C20.0819918,8.7246859 20.3158724,9.99523594 20.005639,11.59927 C19.8774466,12.2601822 19.6616495,12.8746649 19.357042,13.4221278 C19.0520327,13.9699945 18.6537926,14.4815251 18.1627235,14.9353219 Z M26.7266946,16.1336036 L27.8844441,10.3117632 C28.0162532,9.63026065 27.9680304,9.12397855 27.7393738,8.87648978 C27.5103154,8.62859727 27.0232649,8.4626627 26.2786242,8.4626627 L23.9518731,8.4626627 L22.4525453,16.1336036 L19.5414943,16.1336036 L22.1595916,2.81039049 L25.0706426,2.81039049 L24.3746265,6.44399406 L26.9678087,6.44399406 C28.5997493,6.44399406 29.7249485,6.77303705 30.3442098,7.34472401 C30.9634712,7.91641097 31.1491291,8.6996544 30.9015853,9.98029779 L29.6835572,16.1336036 L26.7266946,16.1336036 Z M42.905049,11.6206679 C42.7772586,12.2815801 42.5610596,12.8855657 42.256854,13.4326249 C41.9522465,13.9804916 41.5544082,14.4815251 41.0629373,14.9353219 C40.47703,15.4860147 39.8260219,15.7133168 39.1099131,15.9474823 C38.3938042,16.1820516 37.4811873,16.1336036 36.3724643,16.1336036 L33.8596535,16.1336036 L33.1636374,20.1709409 L30.2296806,20.1709409 L32.8473761,6.44399406 L38.489848,6.44399406 C40.1872912,6.44399406 41.4254122,6.93453054 42.203407,7.82960822 C42.981,8.7246859 43.2152825,10.0170376 42.905049,11.6206679 Z M37.3779101,8.4626627 L35.368224,8.4626627 L34.2723604,14.1149349 L36.0574085,14.1149349 C37.2396713,14.1149349 38.1213452,13.9978521 38.7000191,13.5497077 C39.2794966,13.1023707 39.6696996,12.4079487 39.8726373,11.3610671 C40.067136,10.3553664 39.9787275,9.57091179 39.6074118,9.15748845 C39.2356942,8.74406511 38.492661,8.4626627 37.3779101,8.4626627 Z M14.4780982,8.4626627 L12.4680103,8.4626627 L11.3721467,14.1149349 L13.1567929,14.1149349 C14.3394576,14.1149349 15.2207296,13.9978521 15.7998053,13.5497077 C16.378881,13.1023707 16.7694859,12.4079487 16.9720217,11.3610671 C17.1665204,10.3553664 17.0781119,9.57091179 16.7067962,9.15748845 C16.3354805,8.74406511 15.592849,8.4626627 14.4780982,8.4626627 Z" id="Shape"></path>
                    </g>
                </g>
            </g>
        </g>
    </g>
</svg>