<?xml version="1.0" encoding="UTF-8"?>
<svg width="48px" height="43px" viewBox="0 0 48 43" version="1.1" xmlns="http://www.w3.org/2000/svg" xmlns:xlink="http://www.w3.org/1999/xlink">
    <!-- Generator: Sketch 50.2 (55047) - http://www.bohemiancoding.com/sketch -->
    <title>react</title>
    <desc>Created with Sketch.</desc>
    <defs></defs>
    <g id="Page-1" stroke="none" stroke-width="1" fill="none" fill-rule="evenodd">
        <g id="home" transform="translate(-162.000000, -1789.000000)" fill-rule="nonzero">
            <g id="habilidades" transform="translate(-56.000000, 1346.000000)">
                <g id="titulo" transform="translate(207.000000, 82.000000)">
                    <g id="Group-5" transform="translate(0.000000, 196.000000)">
                        <g id="Group-4-Copy-7" transform="translate(0.000000, 160.000000)">
                            <g id="react" transform="translate(11.000000, 5.000000)">
                                <path d="M0,21.4227051 C0,25.0346537 3.53977125,28.4063696 9.12024525,30.3069895 C8.00584837,35.8968159 8.92064615,40.4023998 11.9757576,42.1579026 C15.1159533,43.9624671 19.7942695,42.7133701 24.2346893,38.8457749 C28.5630468,42.5571625 32.9374366,44.0177319 35.9899069,42.2571537 C39.1272727,40.4475139 40.0813112,35.6364698 38.9361632,29.8720142 C44.7486853,27.9572962 48,25.0822114 48,21.4227051 C48,17.8945936 44.4538144,14.842436 38.9484259,12.9540345 C40.1812994,6.951414 39.1367056,2.55523182 35.9550053,0.727170431 C32.8876312,-1.03528752 28.462304,0.500847972 24.0703691,4.30923088 C19.5010966,0.267006494 15.1195378,-0.967052428 11.9412333,0.866084299 C8.87668907,2.63361759 8.00226388,7.22115879 9.12024525,12.9143717 C3.72805094,14.7875472 0,17.9088798 0,21.4227051 Z" id="Shape" fill="#FFFFFF"></path>
                                <path d="M38.3547859,15.3164642 C37.8971023,15.1605277 37.4355356,15.0160705 36.9705252,14.88323 C37.0476407,14.5719904 37.1189529,14.2593606 37.1844253,13.9455009 C38.2322311,8.89337 37.5471419,4.82338785 35.2075625,3.48361294 C32.9644665,2.19865387 29.2958142,3.53842878 25.5906238,6.74099741 C25.2255252,7.05729299 24.8685306,7.38270053 24.5199818,7.71690851 C24.2865681,7.49468 24.0490298,7.27676538 23.8074891,7.06327678 C19.9243658,3.63860947 16.032108,2.19562954 13.6950026,3.53937388 C11.4539999,4.82792434 10.7902246,8.6542595 11.7335543,13.4421402 C11.827409,13.9162801 11.9333783,14.3879746 12.0513596,14.8567671 C11.500624,15.0121417 10.9687284,15.1777234 10.4598594,15.3538902 C5.90744216,16.9303183 3,19.4011899 3,21.9639253 C3,24.6109636 6.1209616,27.2659408 10.8629202,28.8756365 C11.247423,29.0055559 11.6351263,29.1259361 12.0256687,29.2366651 C11.8987944,29.7417156 11.7861547,30.2501893 11.6878817,30.7614907 C10.7885119,35.4662026 11.4909186,39.2018081 13.7260219,40.4824197 C16.034582,41.8046157 19.9091416,40.4455607 23.6820797,37.1698413 C23.9802838,36.9108837 24.2796297,36.6362374 24.5793562,36.3483597 C24.9568825,36.7101555 25.344489,37.0614284 25.7417241,37.401769 C29.396294,40.5253272 33.0055719,41.7866588 35.2387722,40.5026448 C37.5452389,39.1764794 38.2946503,35.1633923 37.3214431,30.2808124 C37.2472251,29.9078757 37.1606375,29.527 37.0635832,29.1391307 C37.3357158,29.0593641 37.6027103,28.9769514 37.8632344,28.8911362 C42.7928313,27.2689652 46,24.6463104 46,21.9639253 C46,19.3919279 42.998929,16.9044226 38.3547859,15.3164642 Z" id="Shape" fill="#53C1DE"></path>
                                <path d="M38.0044713,27.7559651 C37.7654221,27.8347171 37.5199853,27.9107736 37.269903,27.9845194 C36.7163154,26.2413834 35.9691656,24.387725 35.0551652,22.4728363 C35.9275497,20.6031964 36.6456652,18.7734139 37.1837679,17.0414457 C37.6310899,17.1704528 38.0654434,17.306199 38.4839247,17.4496472 C42.5313087,18.8354143 45,20.8847014 45,22.463594 C45,24.1454997 42.3336817,26.3289927 38.0046648,27.7559651 L38.0044713,27.7559651 Z M36.2082148,31.296728 C36.6458587,33.4960099 36.7083793,35.4844519 36.4184232,37.0388909 C36.1578886,38.4356333 35.6341095,39.3667948 34.9864507,39.7397601 C33.6080948,40.5334424 30.6603372,39.5017709 27.48166,36.7806842 C27.1171825,36.4687567 26.7499952,36.1356488 26.38184,35.7832862 C27.61425,34.4423828 28.8458858,32.8835151 30.0479066,31.1525097 C32.1623793,30.9659308 34.1599404,30.6607424 35.9714883,30.2442613 C36.0605269,30.6024004 36.1398873,30.9534152 36.2082148,31.296728 Z M18.0424095,39.602666 C16.6957978,40.0757561 15.62327,40.0892345 14.9750305,39.7174245 C13.5953197,38.9260527 13.0219887,35.8703178 13.8041732,31.7719362 C13.8971875,31.2875936 14.0036877,30.8059104 14.1235507,30.327442 C15.9149682,30.7215875 17.8980121,31.0052105 20.0175174,31.1761931 C21.2274742,32.8700368 22.4947254,34.4269789 23.7718483,35.7904105 C23.5004257,36.0515946 23.2225799,36.3060917 22.9385634,36.5536703 C21.2416042,38.0293572 19.541161,39.0760475 18.042603,39.602666 L18.0424095,39.602666 Z M11.7336392,27.7455675 C9.60097168,27.0204322 7.83974992,26.0781028 6.63250295,25.0498971 C5.54778081,24.1256673 5,23.2081767 5,22.463594 C5,20.8795026 7.37442657,18.8587126 11.3345141,17.4852686 C11.8315621,17.3136347 12.3335546,17.1565125 12.8398467,17.0141039 C13.3872404,18.7849667 14.1051623,20.6365072 14.9715464,22.5088428 C14.0939357,24.4090978 13.365755,26.290098 12.8133287,28.0817561 C12.4507174,27.9785104 12.0907122,27.8664137 11.7336392,27.7455675 Z M13.8484989,13.4257816 C13.0264406,9.24691493 13.5722858,6.09471358 14.9459962,5.30372689 C16.4093258,4.46113736 19.6447167,5.66263614 23.0548942,8.67466263 C23.2728452,8.86721051 23.4917639,9.06880814 23.7110698,9.2773375 C22.440528,10.6346075 21.1848905,12.1798043 19.9853861,13.863828 C17.9284014,14.0534877 15.9592939,14.3580984 14.1491009,14.7661074 C14.0375943,14.3218512 13.9373618,13.8748698 13.8484989,13.425589 L13.8484989,13.4257816 Z M32.7144184,18.0598314 C32.2868546,17.3251515 31.84343,16.5997195 31.3844531,15.8840404 C32.780036,16.059259 34.1169696,16.2922419 35.3724135,16.5774053 C34.9955481,17.7790966 34.5257728,19.0356641 33.9725722,20.3238094 C33.5683791,19.5608942 33.1489109,18.8060844 32.7144184,18.0598314 Z M25.0209047,10.6055328 C25.8826433,11.5341912 26.7457368,12.5712541 27.5947003,13.6963114 C25.8725801,13.6153604 24.1475867,13.6149749 22.4254302,13.6951561 C23.2751679,12.5804964 24.1456168,11.5449739 25.0209047,10.6055328 Z M17.2780326,18.0725396 C16.8489801,18.8128577 16.437355,19.5630359 16.0434934,20.3224616 C15.4993903,19.0387449 15.0338734,17.7765935 14.6537174,16.5577654 C15.9016124,16.2799188 17.232352,16.0529049 18.6188375,15.8805745 C18.1547168,16.6006891 17.7076586,17.3315455 17.2780326,18.0725396 Z M18.6587113,29.179279 C17.2263515,29.0202344 15.8754815,28.8047734 14.6279736,28.5346287 C15.01413,27.2942352 15.4899057,26.0049346 16.0456226,24.6936836 C16.4411446,25.4536721 16.8545785,26.2043029 17.2855816,26.9449534 C17.7253763,27.7004781 18.1832162,28.445465 18.6587113,29.179279 Z M25.0725858,34.4529729 C24.1870391,33.502364 23.3038151,32.4510526 22.4411087,31.3202189 C23.2784585,31.352952 24.132261,31.3695111 25,31.3695111 C25.8915471,31.3695111 26.7728355,31.3496787 27.6401874,31.3111691 C26.788514,32.4626055 25.9285175,33.5154573 25.0725858,34.4529729 Z M33.99038,24.6268694 C34.5749376,25.9523691 35.0677467,27.2347379 35.4591294,28.4541437 C34.1909103,28.7420028 32.8218454,28.9738304 31.3792269,29.1459682 C31.8415213,28.4169269 32.28919,27.678809 32.7219674,26.9320527 C33.1619119,26.1731147 33.5848208,25.40453 33.99038,24.6268694 Z M31.1034009,26.0035868 C30.4408764,27.148468 29.7411022,28.2716157 29.0051875,29.3712492 C27.707547,29.4634797 26.3665486,29.511039 25,29.511039 C23.6390647,29.511039 22.3150998,29.468871 21.0401061,29.3866531 C20.2851047,28.2895798 19.5720927,27.1644883 18.9025995,26.0137918 C18.2362357,24.8692005 17.6138076,23.699849 17.0366607,22.5082651 C17.6123396,21.3163243 18.2328868,20.1463464 18.8969862,19.0008129 L18.8969862,19.001198 C19.5608773,17.8554206 20.268276,16.7351398 21.0176529,15.6427779 C22.3183903,15.5449636 23.6520334,15.4937458 25.0001936,15.4937458 C26.3543542,15.4937458 27.6897393,15.5453487 28.9900896,15.6439332 C29.7318866,16.7346141 30.4347609,17.8509954 31.0974005,18.990993 C31.7637835,20.1339779 32.3926123,21.2982246 32.9828891,22.4818861 C32.3986842,23.6776072 31.7718554,24.8522519 31.1035944,26.0035868 L31.1034009,26.0035868 Z M34.9578035,5.24846564 C36.4222945,6.0887446 36.9919478,9.47700965 36.0717535,13.9204371 C36.0114396,14.2098995 35.9458759,14.4982549 35.8750944,14.7853622 C34.060643,14.3688811 32.0901806,14.058879 30.0271955,13.8663311 C28.8253683,12.1640153 27.5801831,10.6161229 26.3301589,9.27637476 C26.657717,8.96224212 26.99307,8.65625331 27.3359077,8.35869156 C30.5649111,5.56328143 33.5827381,4.45959698 34.9578035,5.24846564 Z" id="Shape" fill="#FFFFFF"></path>
                                <path d="M25,18 C27.2092482,18 29,19.5670425 29,21.4999133 C29,23.4329575 27.2092482,25 25,25 C22.7909501,25 21,23.4329575 21,21.4999133 C21,19.5670425 22.7909501,18 25,18" id="Shape" fill="#53C1DE"></path>
                            </g>
                        </g>
                    </g>
                </g>
            </g>
        </g>
    </g>
</svg>