<?xml version="1.0" encoding="UTF-8"?>
<svg width="41px" height="40px" viewBox="0 0 41 40" version="1.1" xmlns="http://www.w3.org/2000/svg" xmlns:xlink="http://www.w3.org/1999/xlink">
    <!-- Generator: Sketch 50.2 (55047) - http://www.bohemiancoding.com/sketch -->
    <title>typescript</title>
    <desc>Created with Sketch.</desc>
    <defs></defs>
    <g id="Page-1" stroke="none" stroke-width="1" fill="none" fill-rule="evenodd">
        <g id="Desktop-HD" transform="translate(-151.000000, -1587.000000)" fill-rule="nonzero">
            <g id="seccion-exp" transform="translate(0.000000, 1248.000000)">
                <g id="typescript" transform="translate(140.000000, 314.000000)">
                    <g transform="translate(11.000000, 25.000000)" id="Shape">
                        <polyline fill="#007ACC" points="0 20 0 0 40.0833333 0 40.0833333 40 0 40"></polyline>
                        <path d="M9.25,20.3242986 L9.25,21.9502915 L14.4116635,21.9502915 L14.4116635,36.7139086 L18.0744593,36.7139086 L18.0744593,21.9502915 L23.2361228,21.9502915 L23.2361228,20.3542248 C23.2361228,19.4564373 23.2361228,18.7282319 23.1964177,18.708281 C23.1964177,18.6783548 20.0497882,18.6683794 16.228172,18.6683794 L9.27977883,18.6983056 L9.27977883,20.334274 L9.25,20.3242986 Z M32.4477068,18.658404 C33.460187,18.897814 34.2344365,19.3566831 34.9292758,20.0848886 C35.296548,20.4839053 35.8424932,21.1821844 35.8821983,21.3617419 C35.8821983,21.4215945 34.1649526,22.5887182 33.1226936,23.2371203 C33.0829885,23.2670466 32.9241681,23.0974645 32.7653476,22.8381037 C32.2491813,22.0999228 31.7230887,21.7807095 30.8992078,21.720857 C29.7080547,21.6410536 28.9139526,22.2695049 28.9139526,23.3169237 C28.9139526,23.636137 28.9735102,23.8156945 29.0926256,24.0750554 C29.360635,24.6237033 29.8569488,24.952892 31.3955216,25.6312204 C34.2344365,26.8581967 35.4652947,27.6662054 36.2097654,28.8233538 C37.0534988,30.120158 37.2420981,32.1551431 36.6763004,33.6813819 C36.0410187,35.3472765 34.4925197,36.4744986 32.2789601,36.843589 C31.5841208,36.963294 29.9959167,36.9433432 29.251446,36.8136628 C27.6632418,36.5144003 26.1445216,35.7163669 25.2114517,34.688899 C24.8441795,34.2898823 24.1394139,33.2225127 24.179119,33.1526848 L24.5563175,32.9132748 L26.0452589,32.0454135 L27.166928,31.387036 L27.4250112,31.7361756 C27.7525783,32.2548972 28.4871227,32.9531764 28.9139526,33.1925864 C30.2043685,33.8609394 31.9315405,33.7711606 32.7852002,32.9930781 C33.1524724,32.6539139 33.3112928,32.2947989 33.3112928,31.7960281 C33.3112928,31.3371589 33.2418089,31.1276751 33.0135045,30.7785355 C32.6958637,30.3396172 32.0605821,29.9805022 30.2738524,29.1824688 C28.2191133,28.3046321 27.345601,27.7460088 26.5316464,26.8881229 C26.0651114,26.3694012 25.6382815,25.5613925 25.439756,24.8930395 C25.2908619,24.3144654 25.2412305,22.8979562 25.3801984,22.3293574 C25.8070282,20.334274 27.3058959,18.9377156 29.4499715,18.538699 C30.1448108,18.3990431 31.7826463,18.4588956 32.4675594,18.6384531 L32.4477068,18.658404 Z" fill="#FFFFFF"></path>
                    </g>
                </g>
            </g>
        </g>
    </g>
</svg>